<svg width="548" height="487" viewBox="0 0 548 487" fill="none" xmlns="http://www.w3.org/2000/svg">
<path d="M72.5015 292L103.501 189L83.0015 292H72.5015Z" fill="#4D4C4C"/>
<path d="M112.501 98L83.8926 183.453L55.3926 264.453L32.9999 257.504L112.501 98Z" fill="#4D4C4C"/>
<path d="M67.0015 278H55.0015L98.0708 178L67.0015 278Z" fill="#4D4C4C"/>
<path d="M181.501 294L497.501 295.5L506.001 311.5H185.501L181.501 294Z" fill="#C26E0C"/>
<path d="M171.001 248L185.501 311.5H205.501L171.001 248Z" fill="#C26E0C"/>
<path d="M194.001 272L526.501 273.5L535.001 290H202.001L194.001 272Z" fill="#C26E0C"/>
<path d="M161.001 196.499L208.501 272L202.002 290L161.001 196.499Z" fill="#C26E0C"/>
<path d="M477.001 290H495.001L500.949 302H482.001L477.001 290Z" fill="#C26E0C"/>
<path d="M506.501 273.5L500.001 258H518.501L526.501 273.5H506.501Z" fill="#C26E0C"/>
<path fill-rule="evenodd" clip-rule="evenodd" d="M452.501 93H119.501L220.001 258H546.501L489.513 157.968L375.898 156.5L381.5 140.5L354.001 121H468.453L452.501 93Z" fill="#C26E0C"/>
<path d="M160.103 107.568L159.001 43.9507L169.339 43.7716L170.158 91.0084L176.931 90.8911L188.107 77.3606L199.746 90.496L204.736 90.4096L204.182 58.4104L214.164 58.2375L215.001 106.617L200.029 106.877L188.622 107.074L177.214 107.272L160.103 107.568Z" fill="#C26E0C"/>
<path d="M166.5 13L165.965 14.0035C163.807 18.0495 163.867 22.9178 166.123 26.9097V26.9097C167.958 30.1556 168.358 34.0189 167.227 37.5719L165.5 43" stroke="#6E6E6E" stroke-width="0.6" stroke-linecap="round" stroke-dasharray="4 6"/>
<path d="M161.577 1L162.643 2.62363C164.973 6.17382 164.911 10.7842 162.486 14.2704L161.977 15.0025C159.874 18.0254 159.807 22.0195 161.807 25.1111V25.1111C163.203 27.2684 163.619 29.9165 162.951 32.3977L161.577 37.5" stroke="#6E6E6E" stroke-width="0.6" stroke-linecap="round" stroke-dasharray="4 6"/>
<path d="M158.5 5.5L156.157 10.4458C154.795 13.3207 154.831 16.662 156.254 19.5072L156.695 20.3897C157.835 22.6695 157.867 25.346 156.781 27.6523V27.6523C155.392 30.6044 155.857 34.0962 157.97 36.5822L163 42.5" stroke="#6E6E6E" stroke-width="0.6" stroke-linecap="round" stroke-dasharray="4 6"/>
<path d="M112.001 179L128.001 183V254L112.001 248.5V179Z" fill="#4D4C4C"/>
<path d="M133.001 184L149.001 188V259L133.001 253.5V184Z" fill="#4D4C4C"/>
<rect x="122.001" y="219" width="18" height="7" fill="#4D4C4C"/>
<path d="M19.008 413.472V414.816H36V414.624C36.064 413.088 36.096 411.168 36.096 408.864C36.096 406.496 36.064 404.448 36 402.72C35.936 400.928 35.872 399.424 35.808 398.208C35.744 396.992 35.648 395.936 35.52 395.04C35.456 394.144 35.392 393.472 35.328 393.024C35.264 392.512 35.232 392.064 35.232 391.68C35.232 391.296 35.584 390.848 36.288 390.336C39.36 388.288 42.784 387.264 46.56 387.264C48.928 387.264 50.112 387.68 50.112 388.512C50.112 388.576 50.048 388.928 49.92 389.568C48.704 395.648 47.936 404.064 47.616 414.816C47.424 425.568 47.328 431.328 47.328 432.096C47.328 442.016 47.904 448.896 49.056 452.736C49.248 453.248 49.344 453.696 49.344 454.08C49.344 454.4 49.088 454.784 48.576 455.232C46.208 456.768 43.136 457.536 39.36 457.536C36.928 457.536 35.552 456.704 35.232 455.04C35.04 454.144 34.944 452.768 34.944 450.912C34.944 448.992 35.04 446.08 35.232 442.176C35.488 438.272 35.68 431.456 35.808 421.728H19.008C19.008 436.32 19.456 446.56 20.352 452.448C20.352 453.984 18.88 455.232 15.936 456.192C12.992 457.216 10.56 457.728 8.64 457.728C6.72 457.728 5.76 457.44 5.76 456.864C5.76 456.48 5.856 456 6.048 455.424C7.264 452.736 7.872 441.92 7.872 422.976V421.728H2.208C1.696 421.728 1.44 421.536 1.44 421.152C1.44 421.024 1.568 420.544 1.824 419.712C2.08 418.816 2.656 417.792 3.552 416.64C4.512 415.488 5.568 414.912 6.72 414.912H7.776C7.776 402.304 7.04 395.04 5.568 393.12L5.184 392.544C4.8 392.224 4.608 391.84 4.608 391.392C4.608 390.88 4.96 390.464 5.664 390.144C6.624 389.568 8.32 388.992 10.752 388.416C13.248 387.84 15.488 387.552 17.472 387.552C19.456 387.552 20.448 388 20.448 388.896V389.184C19.68 395.84 19.2 403.936 19.008 413.472ZM64.9755 419.808C63.3115 419.872 62.0955 419.936 61.3275 420C60.6235 420 60.2715 419.808 60.2715 419.424C60.2715 419.04 60.4635 418.656 60.8475 418.272C64.9435 414.496 71.8555 412.608 81.5835 412.608C84.9115 412.608 87.5355 412.896 89.4555 413.472L90.4155 413.76C91.1835 414.08 91.5675 414.432 91.5675 414.816C91.5675 415.136 91.3435 415.392 90.8955 415.584C89.1675 416.096 87.5035 416.928 85.9035 418.08C84.3035 419.168 83.5035 419.936 83.5035 420.384L84.0795 421.056C86.1275 422.208 87.6955 424.032 88.7835 426.528C89.9355 429.024 90.5755 431.232 90.7035 433.152L90.8955 436.128C90.8955 442.464 89.1355 447.68 85.6155 451.776C82.0955 455.872 77.2955 457.92 71.2155 457.92C68.1435 457.92 65.4875 457.376 63.2475 456.288C61.0075 455.2 59.3435 453.984 58.2555 452.64C57.2315 451.232 56.3995 449.664 55.7595 447.936C54.9915 445.568 54.6075 443.136 54.6075 440.64C54.6075 438.08 55.0235 435.52 55.8555 432.96C56.7515 430.4 57.7435 428.512 58.8315 427.296C59.9835 426.08 61.2635 425.088 62.6715 424.32C64.4635 423.36 65.9035 422.88 66.9915 422.88C68.0795 422.88 68.6235 423.104 68.6235 423.552L68.0475 424.512C66.6395 426.176 65.6155 428.352 64.9755 431.04C64.3995 433.728 64.1115 436.128 64.1115 438.24C64.1115 440.288 64.3675 442.336 64.8795 444.384C65.3915 446.432 65.9675 447.968 66.6075 448.992C67.2475 449.952 67.9835 450.688 68.8155 451.2C70.0315 451.968 71.3115 452.352 72.6555 452.352C73.9995 452.352 75.3115 451.84 76.5915 450.816C77.8715 449.728 78.7995 448.32 79.3755 446.592C80.5275 443.392 81.1035 440.096 81.1035 436.704C81.1035 431.328 79.7275 427.168 76.9755 424.224C74.2875 421.28 70.2875 419.808 64.9755 419.808ZM129.864 413.28C128.712 420.192 128.136 428.992 128.136 439.68C128.136 447.552 128.456 452.736 129.096 455.232L129.48 456.48C129.48 457.312 128.776 457.728 127.368 457.728C122.44 457.728 119.624 456.352 118.92 453.6C118.856 453.28 118.696 453.12 118.44 453.12C118.248 453.12 118.056 453.248 117.864 453.504C115.88 456.128 112.808 457.44 108.648 457.44C106.344 457.44 103.944 456.864 101.448 455.712C99.912 455.008 98.664 453.792 97.704 452.064C96.744 450.272 96.264 448.096 96.264 445.536L97.704 424.512C97.704 420.096 97.256 416.96 96.36 415.104C96.04 414.4 95.88 413.952 95.88 413.76C95.88 413.376 96.04 413.12 96.36 412.992C97.384 412.672 98.696 412.512 100.296 412.512C106.504 412.512 109.608 415.072 109.608 420.192C109.608 421.792 108.936 425.44 107.592 431.136C106.312 436.832 105.672 440.896 105.672 443.328C105.672 445.696 106.184 447.52 107.208 448.8C108.296 450.08 109.768 450.72 111.624 450.72C113.544 450.72 115.048 450.048 116.136 448.704C117.224 447.36 117.864 446.016 118.056 444.672L118.344 442.656C118.6 440.416 118.728 436.48 118.728 430.848C118.728 425.216 118.536 421.664 118.152 420.192C117.832 418.656 117.672 417.696 117.672 417.312C117.672 415.712 118.952 414.464 121.512 413.568C124.072 412.608 126.376 412.128 128.424 412.128C129.384 412.128 129.864 412.512 129.864 413.28ZM163.689 442.848C163.689 445.6 163.145 448 162.057 450.048C161.033 452.096 159.849 453.6 158.505 454.56C157.161 455.52 155.561 456.288 153.705 456.864C151.273 457.632 149.065 458.016 147.081 458.016C142.921 458.016 139.465 457.216 136.713 455.616C133.961 453.952 132.585 451.328 132.585 447.744C132.585 445.632 133.161 443.904 134.313 442.56C136.105 440.576 138.249 439.584 140.745 439.584C141.513 439.584 141.897 439.936 141.897 440.64C141.897 440.704 141.737 441.216 141.417 442.176C141.161 443.072 141.033 444.224 141.033 445.632C141.033 447.04 141.577 448.288 142.665 449.376C143.817 450.464 145.193 451.008 146.793 451.008C148.393 451.008 149.673 450.752 150.633 450.24C151.593 449.664 152.265 448.96 152.649 448.128C153.225 446.976 153.513 445.888 153.513 444.864C153.513 443.008 152.585 441.408 150.729 440.064C148.873 438.72 146.825 437.664 144.585 436.896C142.345 436.128 140.297 434.848 138.441 433.056C136.585 431.264 135.657 429.024 135.657 426.336C135.657 421.728 137.097 418.272 139.977 415.968C142.921 413.664 146.889 412.512 151.881 412.512C154.057 412.512 156.329 412.832 158.697 413.472C161.129 414.048 162.345 415.072 162.345 416.544C162.345 417.952 162.089 419.264 161.577 420.48C161.129 421.696 160.553 422.304 159.849 422.304C159.465 422.304 159.209 422.176 159.081 421.92C158.953 421.6 158.729 421.248 158.409 420.864C158.089 420.48 157.321 420 156.105 419.424C154.889 418.784 153.833 418.464 152.937 418.464C152.105 418.464 151.529 418.496 151.209 418.56C150.953 418.56 150.473 418.656 149.769 418.848C149.065 418.976 148.425 419.2 147.849 419.52C146.377 420.352 145.641 421.568 145.641 423.168C145.641 424.192 145.865 424.96 146.313 425.472C146.761 425.92 147.113 426.272 147.369 426.528C147.625 426.784 148.073 427.104 148.713 427.488C149.353 427.808 149.801 428.032 150.057 428.16C150.313 428.288 150.889 428.576 151.785 429.024C152.681 429.408 153.257 429.664 153.513 429.792C160.297 432.992 163.689 437.344 163.689 442.848ZM176.625 431.616L176.721 434.016C176.721 434.4 176.977 434.592 177.489 434.592C179.537 434.4 181.329 433.888 182.865 433.056C184.401 432.16 185.553 431.168 186.321 430.08C187.857 427.712 188.689 425.664 188.817 423.936L188.913 422.784C188.913 419.328 187.537 417.6 184.785 417.6C182.737 417.6 181.073 418.496 179.793 420.288C177.681 423.104 176.625 426.88 176.625 431.616ZM197.553 444.384C197.553 446.816 197.041 448.96 196.017 450.816C195.057 452.608 193.937 453.952 192.657 454.848C191.441 455.68 190.001 456.352 188.337 456.864C186.225 457.504 184.209 457.824 182.289 457.824C176.913 457.824 172.945 455.808 170.385 451.776C167.825 447.744 166.545 442.624 166.545 436.416C166.545 430.144 168.113 424.576 171.249 419.712C174.449 414.848 179.217 412.416 185.553 412.416C191.313 412.416 195.217 414.432 197.265 418.464C198.097 420 198.513 421.472 198.513 422.88C198.513 424.224 198.449 425.312 198.321 426.144C198.193 426.912 197.745 428.096 196.977 429.696C196.209 431.296 195.185 432.736 193.905 434.016C192.625 435.296 190.609 436.512 187.857 437.664C185.105 438.816 181.873 439.584 178.161 439.968C177.649 439.968 177.393 440.192 177.393 440.64C177.393 441.216 177.585 442.08 177.969 443.232C178.417 444.32 178.897 445.248 179.409 446.016C180.817 447.808 182.897 448.704 185.649 448.704C188.401 448.704 190.737 447.808 192.657 446.016C193.681 445.056 194.513 443.872 195.153 442.464C195.409 441.952 195.729 441.696 196.113 441.696C196.561 441.696 196.913 442.048 197.169 442.752C197.425 443.456 197.553 444 197.553 444.384ZM229.507 419.808C227.843 419.872 226.627 419.936 225.859 420C225.155 420 224.803 419.808 224.803 419.424C224.803 419.04 224.995 418.656 225.379 418.272C229.475 414.496 236.387 412.608 246.115 412.608C249.443 412.608 252.067 412.896 253.987 413.472L254.947 413.76C255.715 414.08 256.099 414.432 256.099 414.816C256.099 415.136 255.875 415.392 255.427 415.584C253.699 416.096 252.035 416.928 250.435 418.08C248.835 419.168 248.035 419.936 248.035 420.384L248.611 421.056C250.659 422.208 252.227 424.032 253.315 426.528C254.467 429.024 255.107 431.232 255.235 433.152L255.427 436.128C255.427 442.464 253.667 447.68 250.147 451.776C246.627 455.872 241.827 457.92 235.747 457.92C232.675 457.92 230.019 457.376 227.779 456.288C225.539 455.2 223.875 453.984 222.787 452.64C221.763 451.232 220.931 449.664 220.291 447.936C219.523 445.568 219.139 443.136 219.139 440.64C219.139 438.08 219.555 435.52 220.387 432.96C221.283 430.4 222.275 428.512 223.363 427.296C224.515 426.08 225.795 425.088 227.203 424.32C228.995 423.36 230.435 422.88 231.523 422.88C232.611 422.88 233.155 423.104 233.155 423.552L232.579 424.512C231.171 426.176 230.147 428.352 229.507 431.04C228.931 433.728 228.643 436.128 228.643 438.24C228.643 440.288 228.899 442.336 229.411 444.384C229.923 446.432 230.499 447.968 231.139 448.992C231.779 449.952 232.515 450.688 233.347 451.2C234.563 451.968 235.843 452.352 237.187 452.352C238.531 452.352 239.843 451.84 241.123 450.816C242.403 449.728 243.331 448.32 243.907 446.592C245.059 443.392 245.635 440.096 245.635 436.704C245.635 431.328 244.259 427.168 241.507 424.224C238.819 421.28 234.819 419.808 229.507 419.808ZM272.891 432L273.371 451.2C273.371 455.232 272.827 458.784 271.739 461.856C270.715 464.992 269.435 467.328 267.899 468.864C264.763 472.128 262.011 473.984 259.643 474.432L258.011 474.816C257.051 474.816 256.571 474.528 256.571 473.952L257.051 472.512C261.723 466.048 264.059 450.176 264.059 424.896C264.059 422.592 264.027 420.864 263.963 419.712C262.619 419.712 261.275 419.808 259.931 420H259.835C259.131 420 258.779 419.648 258.779 418.944L259.067 415.296C259.131 414.72 259.579 414.432 260.411 414.432H263.867V408L264.059 398.88C264.059 398.432 264.123 397.952 264.251 397.44C264.443 396.864 265.147 396.032 266.363 394.944C267.579 393.792 269.371 392.768 271.739 391.872C274.107 390.912 276.123 390.432 277.787 390.432C279.515 390.432 280.379 390.944 280.379 391.968C280.379 392.352 280.091 392.672 279.515 392.928C277.659 393.504 276.123 395.168 274.907 397.92C273.755 400.608 273.179 405.216 273.179 411.744V414.432C276.443 414.304 278.587 414.144 279.611 413.952C280.059 413.952 280.283 414.336 280.283 415.104C280.283 415.872 279.931 416.832 279.227 417.984C278.587 419.072 277.755 419.648 276.731 419.712C275.771 419.712 274.555 419.68 273.083 419.616C272.955 424.48 272.891 428.608 272.891 432ZM334.367 457.92C333.727 458.368 333.247 458.592 332.927 458.592C332.223 458.592 331.743 458.304 331.487 457.728C329.567 453.888 327.967 448.704 326.687 442.176C326.623 441.92 326.527 441.792 326.399 441.792L325.823 442.176C324.095 445.248 322.079 448.096 319.775 450.72C317.535 453.344 315.711 455.2 314.303 456.288L312.191 457.92C311.551 458.496 311.039 458.784 310.655 458.784C309.951 458.784 309.471 458.464 309.215 457.824C307.807 455.136 306.175 449.92 304.319 442.176L303.455 438.24C302.239 432.608 300.991 428.096 299.711 424.704C298.495 421.312 297.567 419.328 296.927 418.752L295.966 417.888C295.39 417.696 295.102 417.376 295.102 416.928C295.102 416.032 296.414 415.072 299.039 414.048C301.727 413.024 303.807 412.512 305.279 412.512C306.751 412.512 307.711 413.12 308.159 414.336C308.671 415.488 309.439 418.784 310.463 424.224C313.151 438.56 315.103 445.728 316.319 445.728C316.703 445.728 317.119 445.408 317.567 444.768C318.079 444.064 318.655 443.232 319.295 442.272C319.999 441.312 320.927 439.648 322.079 437.28C323.231 434.912 323.807 432.832 323.807 431.04C323.807 430.72 323.583 429.568 323.135 427.584C322.687 425.536 322.015 423.584 321.119 421.728C320.287 419.808 319.615 418.72 319.103 418.464C317.951 417.824 317.375 417.28 317.375 416.832C317.375 416.064 318.687 415.168 321.311 414.144C323.935 413.056 326.303 412.512 328.415 412.512C329.375 412.512 330.047 413.088 330.431 414.24C331.391 417.248 332.543 422.656 333.887 430.464C335.615 440.448 337.215 445.44 338.687 445.44C339.199 445.44 339.967 444.736 340.991 443.328C342.015 441.856 343.007 439.744 343.967 436.992C344.991 434.24 345.503 431.904 345.503 429.984C345.503 428 345.407 426.496 345.215 425.472C345.087 424.384 344.543 423.136 343.583 421.728C342.623 420.32 341.535 419.52 340.319 419.328C339.103 419.072 338.495 418.656 338.495 418.08C338.495 417.184 339.807 416.032 342.431 414.624C345.119 413.216 347.871 412.512 350.687 412.512C353.375 412.512 354.719 415.2 354.719 420.576C354.719 427.296 352.735 434.208 348.767 441.312C344.799 448.416 339.999 453.952 334.367 457.92ZM367.612 404.64L365.308 404.544C363.58 404.544 362.46 404.96 361.948 405.792C361.82 405.984 361.66 406.08 361.468 406.08C360.636 406.08 360.22 404.672 360.22 401.856C360.22 398.976 360.636 397.152 361.468 396.384C362.364 395.616 363.868 395.232 365.98 395.232C368.156 395.232 369.628 395.616 370.396 396.384C371.164 397.088 371.548 398.304 371.548 400.032C371.548 401.76 371.26 402.976 370.684 403.68C370.108 404.32 369.084 404.64 367.612 404.64ZM359.932 453.12L360.988 430.752C360.988 425.44 360.38 421.824 359.164 419.904C358.78 419.264 358.332 418.784 357.82 418.464C357.436 418.336 357.244 418.08 357.244 417.696C357.244 416.544 358.876 415.424 362.14 414.336C365.404 413.248 367.772 412.704 369.244 412.704C370.78 412.704 371.58 413.088 371.644 413.856C371.644 415.136 371.452 418.784 371.068 424.8C370.748 430.752 370.588 437.024 370.588 443.616C370.588 450.208 370.972 454.304 371.74 455.904C371.932 456.224 372.028 456.544 372.028 456.864C372.028 457.696 370.812 458.112 368.38 458.112C365.948 458.112 363.452 457.472 360.892 456.192C360.252 455.872 359.932 454.848 359.932 453.12ZM407.064 442.848C407.064 445.6 406.52 448 405.432 450.048C404.408 452.096 403.224 453.6 401.88 454.56C400.536 455.52 398.936 456.288 397.08 456.864C394.648 457.632 392.44 458.016 390.456 458.016C386.296 458.016 382.84 457.216 380.088 455.616C377.336 453.952 375.96 451.328 375.96 447.744C375.96 445.632 376.536 443.904 377.688 442.56C379.48 440.576 381.624 439.584 384.12 439.584C384.888 439.584 385.272 439.936 385.272 440.64C385.272 440.704 385.112 441.216 384.792 442.176C384.536 443.072 384.408 444.224 384.408 445.632C384.408 447.04 384.952 448.288 386.04 449.376C387.192 450.464 388.568 451.008 390.168 451.008C391.768 451.008 393.048 450.752 394.008 450.24C394.968 449.664 395.64 448.96 396.024 448.128C396.6 446.976 396.888 445.888 396.888 444.864C396.888 443.008 395.96 441.408 394.104 440.064C392.248 438.72 390.2 437.664 387.96 436.896C385.72 436.128 383.672 434.848 381.816 433.056C379.96 431.264 379.032 429.024 379.032 426.336C379.032 421.728 380.472 418.272 383.352 415.968C386.296 413.664 390.264 412.512 395.256 412.512C397.432 412.512 399.704 412.832 402.072 413.472C404.504 414.048 405.72 415.072 405.72 416.544C405.72 417.952 405.464 419.264 404.952 420.48C404.504 421.696 403.928 422.304 403.224 422.304C402.84 422.304 402.584 422.176 402.456 421.92C402.328 421.6 402.104 421.248 401.784 420.864C401.464 420.48 400.696 420 399.48 419.424C398.264 418.784 397.208 418.464 396.312 418.464C395.48 418.464 394.904 418.496 394.584 418.56C394.328 418.56 393.848 418.656 393.144 418.848C392.44 418.976 391.8 419.2 391.224 419.52C389.752 420.352 389.016 421.568 389.016 423.168C389.016 424.192 389.24 424.96 389.688 425.472C390.136 425.92 390.488 426.272 390.744 426.528C391 426.784 391.448 427.104 392.088 427.488C392.728 427.808 393.176 428.032 393.432 428.16C393.688 428.288 394.264 428.576 395.16 429.024C396.056 429.408 396.632 429.664 396.888 429.792C403.672 432.992 407.064 437.344 407.064 442.848ZM430.08 412.896C431.232 412.896 432.256 413.056 433.152 413.376C434.112 413.632 434.624 413.76 434.688 413.76L435.264 413.28L434.88 402.816C434.752 401.024 434.368 399.488 433.728 398.208C433.088 396.928 432.512 396.096 432 395.712L431.136 395.232C430.752 394.976 430.56 394.688 430.56 394.368C430.56 393.408 432.032 392.288 434.976 391.008C437.984 389.728 440.32 389.088 441.984 389.088C443.648 389.088 444.544 389.44 444.672 390.144C444.992 392.32 445.152 396.48 445.152 402.624C445.152 408.704 444.992 414.688 444.672 420.576C444.416 426.464 444.288 433.152 444.288 440.64C444.288 448.064 444.768 452.736 445.728 454.656C445.984 455.104 446.112 455.52 446.112 455.904C446.112 456.864 444.736 457.344 441.984 457.344C436.736 457.344 434.112 456.096 434.112 453.6C433.984 452.576 433.92 451.008 433.92 448.896C433.92 446.72 434.112 442.72 434.496 436.896C434.944 431.008 435.168 426.496 435.168 423.36C435.168 420.16 433.568 418.56 430.368 418.56C427.232 418.56 424.832 420.416 423.168 424.128C421.504 427.84 420.672 431.552 420.672 435.264C420.672 443.136 422.656 447.072 426.624 447.072C427.2 447.072 427.744 446.976 428.256 446.784C428.832 446.528 429.184 446.4 429.312 446.4C429.824 446.4 430.208 446.72 430.464 447.36C430.784 448 430.944 448.64 430.944 449.28C430.944 451.456 430.08 453.312 428.352 454.848C426.624 456.32 424.512 457.056 422.016 457.056C418.176 457.056 415.264 455.392 413.28 452.064C411.36 448.672 410.4 444.48 410.4 439.488C410.4 433.152 411.904 427.264 414.912 421.824C416.448 419.136 418.528 416.992 421.152 415.392C423.776 413.728 426.752 412.896 430.08 412.896ZM459.851 419.808C458.187 419.872 456.971 419.936 456.203 420C455.499 420 455.147 419.808 455.147 419.424C455.147 419.04 455.339 418.656 455.723 418.272C459.819 414.496 466.731 412.608 476.459 412.608C479.787 412.608 482.411 412.896 484.331 413.472L485.291 413.76C486.059 414.08 486.443 414.432 486.443 414.816C486.443 415.136 486.219 415.392 485.771 415.584C484.043 416.096 482.379 416.928 480.779 418.08C479.179 419.168 478.379 419.936 478.379 420.384L478.955 421.056C481.003 422.208 482.571 424.032 483.659 426.528C484.811 429.024 485.451 431.232 485.579 433.152L485.771 436.128C485.771 442.464 484.011 447.68 480.491 451.776C476.971 455.872 472.171 457.92 466.091 457.92C463.019 457.92 460.363 457.376 458.123 456.288C455.883 455.2 454.219 453.984 453.131 452.64C452.107 451.232 451.275 449.664 450.635 447.936C449.867 445.568 449.483 443.136 449.483 440.64C449.483 438.08 449.899 435.52 450.73 432.96C451.627 430.4 452.619 428.512 453.707 427.296C454.859 426.08 456.139 425.088 457.547 424.32C459.339 423.36 460.779 422.88 461.867 422.88C462.955 422.88 463.499 423.104 463.499 423.552L462.923 424.512C461.515 426.176 460.491 428.352 459.851 431.04C459.275 433.728 458.987 436.128 458.987 438.24C458.987 440.288 459.243 442.336 459.755 444.384C460.267 446.432 460.843 447.968 461.483 448.992C462.123 449.952 462.859 450.688 463.691 451.2C464.907 451.968 466.187 452.352 467.531 452.352C468.875 452.352 470.187 451.84 471.467 450.816C472.747 449.728 473.675 448.32 474.251 446.592C475.403 443.392 475.979 440.096 475.979 436.704C475.979 431.328 474.603 427.168 471.851 424.224C469.163 421.28 465.163 419.808 459.851 419.808ZM512.451 456.576C513.347 452.096 513.795 445.824 513.795 437.76C513.795 429.632 513.763 424.832 513.699 423.36C513.635 421.888 513.187 420.704 512.355 419.808C511.523 418.912 510.787 418.4 510.147 418.272C509.571 418.144 508.739 418.08 507.651 418.08C506.563 418.08 505.507 418.592 504.483 419.616C503.459 420.576 502.851 421.568 502.659 422.592L502.275 424.128C502.083 426.048 501.987 430.304 501.987 436.896C501.987 443.488 502.115 447.648 502.371 449.376C502.691 451.04 502.851 452.16 502.851 452.736C502.851 453.312 502.595 453.888 502.083 454.464C499.907 456.768 496.835 457.92 492.867 457.92C491.459 457.92 490.755 457.504 490.755 456.672C492.035 448.992 492.675 439.2 492.675 427.296C492.675 422.88 492.579 419.904 492.387 418.368L492.003 415.296C491.939 414.592 491.811 413.824 491.619 412.992C491.619 412.224 492.611 411.84 494.595 411.84C497.539 411.84 499.491 412.928 500.451 415.104C500.515 415.36 500.643 415.488 500.835 415.488C501.027 415.488 501.475 415.232 502.179 414.72C504.291 413.056 507.139 412.224 510.723 412.224C512.771 412.224 514.787 412.608 516.771 413.376C518.755 414.144 520.131 415.168 520.899 416.448C520.963 416.576 521.059 416.64 521.187 416.64C521.315 416.64 521.507 416.512 521.763 416.256C524.451 413.568 527.939 412.224 532.227 412.224C537.923 412.224 541.827 414.272 543.939 418.368C544.707 419.968 545.091 421.984 545.091 424.416C545.091 426.848 544.899 430.304 544.515 434.784C544.131 439.264 543.939 442.688 543.939 445.056C543.939 447.424 544.163 449.568 544.611 451.488C545.123 453.408 545.603 454.784 546.051 455.616C546.563 456.448 546.819 456.928 546.819 457.056C546.819 457.888 545.923 458.304 544.131 458.304C539.715 458.304 536.643 457.408 534.915 455.616C533.187 453.824 532.323 451.488 532.323 448.608C532.323 445.664 532.899 441.728 534.051 436.8C535.267 431.808 535.875 428.064 535.875 425.568C535.875 420.512 533.827 417.984 529.731 417.984C528.003 417.984 526.627 418.496 525.603 419.52C524.579 420.544 523.971 421.568 523.779 422.592L523.587 424.128C523.331 427.072 523.203 430.624 523.203 434.784C523.203 438.944 523.267 442.208 523.395 444.576C523.523 446.88 523.651 448.704 523.779 450.048C523.907 451.328 523.971 452.096 523.971 452.352C523.971 454.144 522.851 455.52 520.611 456.48C518.371 457.44 516.195 457.92 514.083 457.92C512.995 457.92 512.451 457.472 512.451 456.576Z" fill="#050507"/>
</svg>
