<svg width="514" height="312" viewBox="0 0 514 312" fill="none" xmlns="http://www.w3.org/2000/svg">
<path d="M39.5016 292L70.5016 189L50.0016 292H39.5016Z" fill="#4D4C4C"/>
<path d="M79.5016 98L50.8927 183.453L22.3927 264.453L1.8182e-05 257.504L79.5016 98Z" fill="#4D4C4C"/>
<path d="M34.0016 278H22.0016L65.0709 178L34.0016 278Z" fill="#4D4C4C"/>
<path d="M148.502 294L464.502 295.5L473.002 311.5H152.502L148.502 294Z" fill="#C26E0C"/>
<path d="M138.002 248L152.502 311.5H172.502L138.002 248Z" fill="#C26E0C"/>
<path d="M161.002 272L493.502 273.5L502.002 290H169.002L161.002 272Z" fill="#C26E0C"/>
<path d="M128.001 196.499L175.502 272L169.002 290L128.001 196.499Z" fill="#C26E0C"/>
<path d="M444.002 290H462.002L467.949 302H449.002L444.002 290Z" fill="#C26E0C"/>
<path d="M473.502 273.5L467.002 258H485.502L493.502 273.5H473.502Z" fill="#C26E0C"/>
<path fill-rule="evenodd" clip-rule="evenodd" d="M419.502 93H86.5016L187.002 258H513.502L456.514 157.968L342.898 156.5L348.5 140.5L321.002 121H435.453L419.502 93Z" fill="#C26E0C"/>
<path d="M127.103 107.568L126.002 43.9507L136.34 43.7716L137.158 91.0084L143.931 90.8911L155.107 77.3606L166.746 90.496L171.736 90.4096L171.182 58.4104L181.164 58.2375L182.002 106.617L167.029 106.877L155.622 107.074L144.215 107.272L127.103 107.568Z" fill="#C26E0C"/>
<path d="M133.5 13L132.965 14.0035C130.807 18.0495 130.867 22.9178 133.123 26.9097V26.9097C134.958 30.1556 135.358 34.0189 134.227 37.5719L132.5 43" stroke="#6E6E6E" stroke-width="0.6" stroke-linecap="round" stroke-dasharray="4 6"/>
<path d="M128.577 1L129.643 2.62363C131.973 6.17382 131.911 10.7842 129.486 14.2704L128.977 15.0025C126.874 18.0254 126.807 22.0195 128.807 25.1111V25.1111C130.203 27.2684 130.619 29.9165 129.951 32.3977L128.577 37.5" stroke="#6E6E6E" stroke-width="0.6" stroke-linecap="round" stroke-dasharray="4 6"/>
<path d="M125.5 5.5L123.157 10.4458C121.795 13.3207 121.831 16.662 123.254 19.5072L123.695 20.3897C124.835 22.6695 124.867 25.346 123.781 27.6523V27.6523C122.392 30.6044 122.857 34.0962 124.97 36.5822L130 42.5" stroke="#6E6E6E" stroke-width="0.6" stroke-linecap="round" stroke-dasharray="4 6"/>
<path d="M79.0016 179L95.0016 183V254L79.0016 248.5V179Z" fill="#4D4C4C"/>
<path d="M100.002 184L116.002 188V259L100.002 253.5V184Z" fill="#4D4C4C"/>
<rect x="89.0016" y="219" width="18" height="7" fill="#4D4C4C"/>
</svg>
