<svg width="546" height="88" viewBox="0 0 546 88" fill="none" xmlns="http://www.w3.org/2000/svg">
<path d="M18.008 26.472V27.816H35V27.624C35.064 26.088 35.096 24.168 35.096 21.864C35.096 19.496 35.064 17.448 35 15.72C34.936 13.928 34.872 12.424 34.808 11.208C34.744 9.99199 34.648 8.936 34.52 8.04C34.456 7.144 34.392 6.472 34.328 6.024C34.264 5.512 34.232 5.064 34.232 4.68C34.232 4.296 34.584 3.848 35.288 3.336C38.36 1.288 41.784 0.263998 45.56 0.263998C47.928 0.263998 49.112 0.679998 49.112 1.512C49.112 1.576 49.048 1.928 48.92 2.568C47.704 8.648 46.936 17.064 46.616 27.816C46.424 38.568 46.328 44.328 46.328 45.096C46.328 55.016 46.904 61.896 48.056 65.736C48.248 66.248 48.344 66.696 48.344 67.08C48.344 67.4 48.088 67.784 47.576 68.232C45.208 69.768 42.136 70.536 38.36 70.536C35.928 70.536 34.552 69.704 34.232 68.04C34.04 67.144 33.944 65.768 33.944 63.912C33.944 61.992 34.04 59.08 34.232 55.176C34.488 51.272 34.68 44.456 34.808 34.728H18.008C18.008 49.32 18.456 59.56 19.352 65.448C19.352 66.984 17.88 68.232 14.936 69.192C11.992 70.216 9.56 70.728 7.64 70.728C5.72 70.728 4.76 70.44 4.76 69.864C4.76 69.48 4.856 69 5.048 68.424C6.264 65.736 6.872 54.92 6.872 35.976V34.728H1.208C0.696 34.728 0.44 34.536 0.44 34.152C0.44 34.024 0.568 33.544 0.824 32.712C1.08 31.816 1.656 30.792 2.552 29.64C3.512 28.488 4.568 27.912 5.72 27.912H6.776C6.776 15.304 6.04 8.04 4.568 6.12L4.184 5.544C3.8 5.224 3.608 4.84 3.608 4.392C3.608 3.88 3.96 3.46399 4.664 3.144C5.624 2.568 7.32 1.99199 9.752 1.41599C12.248 0.839994 14.488 0.551994 16.472 0.551994C18.456 0.551994 19.448 0.999994 19.448 1.89599V2.184C18.68 8.84 18.2 16.936 18.008 26.472ZM63.9755 32.808C62.3115 32.872 61.0955 32.936 60.3275 33C59.6235 33 59.2715 32.808 59.2715 32.424C59.2715 32.04 59.4635 31.656 59.8475 31.272C63.9435 27.496 70.8555 25.608 80.5835 25.608C83.9115 25.608 86.5355 25.896 88.4555 26.472L89.4155 26.76C90.1835 27.08 90.5675 27.432 90.5675 27.816C90.5675 28.136 90.3435 28.392 89.8955 28.584C88.1675 29.096 86.5035 29.928 84.9035 31.08C83.3035 32.168 82.5035 32.936 82.5035 33.384L83.0795 34.056C85.1275 35.208 86.6955 37.032 87.7835 39.528C88.9355 42.024 89.5755 44.232 89.7035 46.152L89.8955 49.128C89.8955 55.464 88.1355 60.68 84.6155 64.776C81.0955 68.872 76.2955 70.92 70.2155 70.92C67.1435 70.92 64.4875 70.376 62.2475 69.288C60.0075 68.2 58.3435 66.984 57.2555 65.64C56.2315 64.232 55.3995 62.664 54.7595 60.936C53.9915 58.568 53.6075 56.136 53.6075 53.64C53.6075 51.08 54.0235 48.52 54.8555 45.96C55.7515 43.4 56.7435 41.512 57.8315 40.296C58.9835 39.08 60.2635 38.088 61.6715 37.32C63.4635 36.36 64.9035 35.88 65.9915 35.88C67.0795 35.88 67.6235 36.104 67.6235 36.552L67.0475 37.512C65.6395 39.176 64.6155 41.352 63.9755 44.04C63.3995 46.728 63.1115 49.128 63.1115 51.24C63.1115 53.288 63.3675 55.336 63.8795 57.384C64.3915 59.432 64.9675 60.968 65.6075 61.992C66.2475 62.952 66.9835 63.688 67.8155 64.2C69.0315 64.968 70.3115 65.352 71.6555 65.352C72.9995 65.352 74.3115 64.84 75.5915 63.816C76.8715 62.728 77.7995 61.32 78.3755 59.592C79.5275 56.392 80.1035 53.096 80.1035 49.704C80.1035 44.328 78.7275 40.168 75.9755 37.224C73.2875 34.28 69.2875 32.808 63.9755 32.808ZM128.864 26.28C127.712 33.192 127.136 41.992 127.136 52.68C127.136 60.552 127.456 65.736 128.096 68.232L128.48 69.48C128.48 70.312 127.776 70.728 126.368 70.728C121.44 70.728 118.624 69.352 117.92 66.6C117.856 66.28 117.696 66.12 117.44 66.12C117.248 66.12 117.056 66.248 116.864 66.504C114.88 69.128 111.808 70.44 107.648 70.44C105.344 70.44 102.944 69.864 100.448 68.712C98.912 68.008 97.664 66.792 96.704 65.064C95.744 63.272 95.264 61.096 95.264 58.536L96.704 37.512C96.704 33.096 96.256 29.96 95.36 28.104C95.04 27.4 94.88 26.952 94.88 26.76C94.88 26.376 95.04 26.12 95.36 25.992C96.384 25.672 97.696 25.512 99.296 25.512C105.504 25.512 108.608 28.072 108.608 33.192C108.608 34.792 107.936 38.44 106.592 44.136C105.312 49.832 104.672 53.896 104.672 56.328C104.672 58.696 105.184 60.52 106.208 61.8C107.296 63.08 108.768 63.72 110.624 63.72C112.544 63.72 114.048 63.048 115.136 61.704C116.224 60.36 116.864 59.016 117.056 57.672L117.344 55.656C117.6 53.416 117.728 49.48 117.728 43.848C117.728 38.216 117.536 34.664 117.152 33.192C116.832 31.656 116.672 30.696 116.672 30.312C116.672 28.712 117.952 27.464 120.512 26.568C123.072 25.608 125.376 25.128 127.424 25.128C128.384 25.128 128.864 25.512 128.864 26.28ZM162.689 55.848C162.689 58.6 162.145 61 161.057 63.048C160.033 65.096 158.849 66.6 157.505 67.56C156.161 68.52 154.561 69.288 152.705 69.864C150.273 70.632 148.065 71.016 146.081 71.016C141.921 71.016 138.465 70.216 135.713 68.616C132.961 66.952 131.585 64.328 131.585 60.744C131.585 58.632 132.161 56.904 133.313 55.56C135.105 53.576 137.249 52.584 139.745 52.584C140.513 52.584 140.897 52.936 140.897 53.64C140.897 53.704 140.737 54.216 140.417 55.176C140.161 56.072 140.033 57.224 140.033 58.632C140.033 60.04 140.577 61.288 141.665 62.376C142.817 63.464 144.193 64.008 145.793 64.008C147.393 64.008 148.673 63.752 149.633 63.24C150.593 62.664 151.265 61.96 151.649 61.128C152.225 59.976 152.513 58.888 152.513 57.864C152.513 56.008 151.585 54.408 149.729 53.064C147.873 51.72 145.825 50.664 143.585 49.896C141.345 49.128 139.297 47.848 137.441 46.056C135.585 44.264 134.657 42.024 134.657 39.336C134.657 34.728 136.097 31.272 138.977 28.968C141.921 26.664 145.889 25.512 150.881 25.512C153.057 25.512 155.329 25.832 157.697 26.472C160.129 27.048 161.345 28.072 161.345 29.544C161.345 30.952 161.089 32.264 160.577 33.48C160.129 34.696 159.553 35.304 158.849 35.304C158.465 35.304 158.209 35.176 158.081 34.92C157.953 34.6 157.729 34.248 157.409 33.864C157.089 33.48 156.321 33 155.105 32.424C153.889 31.784 152.833 31.464 151.937 31.464C151.105 31.464 150.529 31.496 150.209 31.56C149.953 31.56 149.473 31.656 148.769 31.848C148.065 31.976 147.425 32.2 146.849 32.52C145.377 33.352 144.641 34.568 144.641 36.168C144.641 37.192 144.865 37.96 145.313 38.472C145.761 38.92 146.113 39.272 146.369 39.528C146.625 39.784 147.073 40.104 147.713 40.488C148.353 40.808 148.801 41.032 149.057 41.16C149.313 41.288 149.889 41.576 150.785 42.024C151.681 42.408 152.257 42.664 152.513 42.792C159.297 45.992 162.689 50.344 162.689 55.848ZM175.625 44.616L175.721 47.016C175.721 47.4 175.977 47.592 176.489 47.592C178.537 47.4 180.329 46.888 181.865 46.056C183.401 45.16 184.553 44.168 185.321 43.08C186.857 40.712 187.689 38.664 187.817 36.936L187.913 35.784C187.913 32.328 186.537 30.6 183.785 30.6C181.737 30.6 180.073 31.496 178.793 33.288C176.681 36.104 175.625 39.88 175.625 44.616ZM196.553 57.384C196.553 59.816 196.041 61.96 195.017 63.816C194.057 65.608 192.937 66.952 191.657 67.848C190.441 68.68 189.001 69.352 187.337 69.864C185.225 70.504 183.209 70.824 181.289 70.824C175.913 70.824 171.945 68.808 169.385 64.776C166.825 60.744 165.545 55.624 165.545 49.416C165.545 43.144 167.113 37.576 170.249 32.712C173.449 27.848 178.217 25.416 184.553 25.416C190.313 25.416 194.217 27.432 196.265 31.464C197.097 33 197.513 34.472 197.513 35.88C197.513 37.224 197.449 38.312 197.321 39.144C197.193 39.912 196.745 41.096 195.977 42.696C195.209 44.296 194.185 45.736 192.905 47.016C191.625 48.296 189.609 49.512 186.857 50.664C184.105 51.816 180.873 52.584 177.161 52.968C176.649 52.968 176.393 53.192 176.393 53.64C176.393 54.216 176.585 55.08 176.969 56.232C177.417 57.32 177.897 58.248 178.409 59.016C179.817 60.808 181.897 61.704 184.649 61.704C187.401 61.704 189.737 60.808 191.657 59.016C192.681 58.056 193.513 56.872 194.153 55.464C194.409 54.952 194.729 54.696 195.113 54.696C195.561 54.696 195.913 55.048 196.169 55.752C196.425 56.456 196.553 57 196.553 57.384ZM228.507 32.808C226.843 32.872 225.627 32.936 224.859 33C224.155 33 223.803 32.808 223.803 32.424C223.803 32.04 223.995 31.656 224.379 31.272C228.475 27.496 235.387 25.608 245.115 25.608C248.443 25.608 251.067 25.896 252.987 26.472L253.947 26.76C254.715 27.08 255.099 27.432 255.099 27.816C255.099 28.136 254.875 28.392 254.427 28.584C252.699 29.096 251.035 29.928 249.435 31.08C247.835 32.168 247.035 32.936 247.035 33.384L247.611 34.056C249.659 35.208 251.227 37.032 252.315 39.528C253.467 42.024 254.107 44.232 254.235 46.152L254.427 49.128C254.427 55.464 252.667 60.68 249.147 64.776C245.627 68.872 240.827 70.92 234.747 70.92C231.675 70.92 229.019 70.376 226.779 69.288C224.539 68.2 222.875 66.984 221.787 65.64C220.763 64.232 219.931 62.664 219.291 60.936C218.523 58.568 218.139 56.136 218.139 53.64C218.139 51.08 218.555 48.52 219.387 45.96C220.283 43.4 221.275 41.512 222.363 40.296C223.515 39.08 224.795 38.088 226.203 37.32C227.995 36.36 229.435 35.88 230.523 35.88C231.611 35.88 232.155 36.104 232.155 36.552L231.579 37.512C230.171 39.176 229.147 41.352 228.507 44.04C227.931 46.728 227.643 49.128 227.643 51.24C227.643 53.288 227.899 55.336 228.411 57.384C228.923 59.432 229.499 60.968 230.139 61.992C230.779 62.952 231.515 63.688 232.347 64.2C233.563 64.968 234.843 65.352 236.187 65.352C237.531 65.352 238.843 64.84 240.123 63.816C241.403 62.728 242.331 61.32 242.907 59.592C244.059 56.392 244.635 53.096 244.635 49.704C244.635 44.328 243.259 40.168 240.507 37.224C237.819 34.28 233.819 32.808 228.507 32.808ZM271.891 45L272.371 64.2C272.371 68.232 271.827 71.784 270.739 74.856C269.715 77.992 268.435 80.328 266.899 81.864C263.763 85.128 261.011 86.984 258.643 87.432L257.011 87.816C256.051 87.816 255.571 87.528 255.571 86.952L256.051 85.512C260.723 79.048 263.059 63.176 263.059 37.896C263.059 35.592 263.027 33.864 262.963 32.712C261.619 32.712 260.275 32.808 258.931 33H258.835C258.131 33 257.779 32.648 257.779 31.944L258.067 28.296C258.131 27.72 258.579 27.432 259.411 27.432H262.867V21L263.059 11.88C263.059 11.432 263.123 10.952 263.251 10.44C263.443 9.864 264.147 9.032 265.363 7.944C266.579 6.792 268.371 5.768 270.739 4.872C273.107 3.912 275.123 3.432 276.787 3.432C278.515 3.432 279.379 3.944 279.379 4.96799C279.379 5.352 279.091 5.672 278.515 5.928C276.659 6.504 275.123 8.168 273.907 10.92C272.755 13.608 272.179 18.216 272.179 24.744V27.432C275.443 27.304 277.587 27.144 278.611 26.952C279.059 26.952 279.283 27.336 279.283 28.104C279.283 28.872 278.931 29.832 278.227 30.984C277.587 32.072 276.755 32.648 275.731 32.712C274.771 32.712 273.555 32.68 272.083 32.616C271.955 37.48 271.891 41.608 271.891 45ZM333.367 70.92C332.727 71.368 332.247 71.592 331.927 71.592C331.223 71.592 330.743 71.304 330.487 70.728C328.567 66.888 326.967 61.704 325.687 55.176C325.623 54.92 325.527 54.792 325.399 54.792L324.823 55.176C323.095 58.248 321.079 61.096 318.775 63.72C316.535 66.344 314.711 68.2 313.303 69.288L311.191 70.92C310.551 71.496 310.039 71.784 309.655 71.784C308.951 71.784 308.471 71.464 308.215 70.824C306.807 68.136 305.175 62.92 303.319 55.176L302.455 51.24C301.239 45.608 299.991 41.096 298.711 37.704C297.495 34.312 296.567 32.328 295.927 31.752L294.966 30.888C294.39 30.696 294.102 30.376 294.102 29.928C294.102 29.032 295.414 28.072 298.039 27.048C300.727 26.024 302.807 25.512 304.279 25.512C305.751 25.512 306.711 26.12 307.159 27.336C307.671 28.488 308.439 31.784 309.463 37.224C312.151 51.56 314.103 58.728 315.319 58.728C315.703 58.728 316.119 58.408 316.567 57.768C317.079 57.064 317.655 56.232 318.295 55.272C318.999 54.312 319.927 52.648 321.079 50.28C322.231 47.912 322.807 45.832 322.807 44.04C322.807 43.72 322.583 42.568 322.135 40.584C321.687 38.536 321.015 36.584 320.119 34.728C319.287 32.808 318.615 31.72 318.103 31.464C316.951 30.824 316.375 30.28 316.375 29.832C316.375 29.064 317.687 28.168 320.311 27.144C322.935 26.056 325.303 25.512 327.415 25.512C328.375 25.512 329.047 26.088 329.431 27.24C330.391 30.248 331.543 35.656 332.887 43.464C334.615 53.448 336.215 58.44 337.687 58.44C338.199 58.44 338.967 57.736 339.991 56.328C341.015 54.856 342.007 52.744 342.967 49.992C343.991 47.24 344.503 44.904 344.503 42.984C344.503 41 344.407 39.496 344.215 38.472C344.087 37.384 343.543 36.136 342.583 34.728C341.623 33.32 340.535 32.52 339.319 32.328C338.103 32.072 337.495 31.656 337.495 31.08C337.495 30.184 338.807 29.032 341.431 27.624C344.119 26.216 346.871 25.512 349.687 25.512C352.375 25.512 353.719 28.2 353.719 33.576C353.719 40.296 351.735 47.208 347.767 54.312C343.799 61.416 338.999 66.952 333.367 70.92ZM366.612 17.64L364.308 17.544C362.58 17.544 361.46 17.96 360.948 18.792C360.82 18.984 360.66 19.08 360.468 19.08C359.636 19.08 359.22 17.672 359.22 14.856C359.22 11.976 359.636 10.152 360.468 9.384C361.364 8.616 362.868 8.232 364.98 8.232C367.156 8.232 368.628 8.616 369.396 9.384C370.164 10.088 370.548 11.304 370.548 13.032C370.548 14.76 370.26 15.976 369.684 16.68C369.108 17.32 368.084 17.64 366.612 17.64ZM358.932 66.12L359.988 43.752C359.988 38.44 359.38 34.824 358.164 32.904C357.78 32.264 357.332 31.784 356.82 31.464C356.436 31.336 356.244 31.08 356.244 30.696C356.244 29.544 357.876 28.424 361.14 27.336C364.404 26.248 366.772 25.704 368.244 25.704C369.78 25.704 370.58 26.088 370.644 26.856C370.644 28.136 370.452 31.784 370.068 37.8C369.748 43.752 369.588 50.024 369.588 56.616C369.588 63.208 369.972 67.304 370.74 68.904C370.932 69.224 371.028 69.544 371.028 69.864C371.028 70.696 369.812 71.112 367.38 71.112C364.948 71.112 362.452 70.472 359.892 69.192C359.252 68.872 358.932 67.848 358.932 66.12ZM406.064 55.848C406.064 58.6 405.52 61 404.432 63.048C403.408 65.096 402.224 66.6 400.88 67.56C399.536 68.52 397.936 69.288 396.08 69.864C393.648 70.632 391.44 71.016 389.456 71.016C385.296 71.016 381.84 70.216 379.088 68.616C376.336 66.952 374.96 64.328 374.96 60.744C374.96 58.632 375.536 56.904 376.688 55.56C378.48 53.576 380.624 52.584 383.12 52.584C383.888 52.584 384.272 52.936 384.272 53.64C384.272 53.704 384.112 54.216 383.792 55.176C383.536 56.072 383.408 57.224 383.408 58.632C383.408 60.04 383.952 61.288 385.04 62.376C386.192 63.464 387.568 64.008 389.168 64.008C390.768 64.008 392.048 63.752 393.008 63.24C393.968 62.664 394.64 61.96 395.024 61.128C395.6 59.976 395.888 58.888 395.888 57.864C395.888 56.008 394.96 54.408 393.104 53.064C391.248 51.72 389.2 50.664 386.96 49.896C384.72 49.128 382.672 47.848 380.816 46.056C378.96 44.264 378.032 42.024 378.032 39.336C378.032 34.728 379.472 31.272 382.352 28.968C385.296 26.664 389.264 25.512 394.256 25.512C396.432 25.512 398.704 25.832 401.072 26.472C403.504 27.048 404.72 28.072 404.72 29.544C404.72 30.952 404.464 32.264 403.952 33.48C403.504 34.696 402.928 35.304 402.224 35.304C401.84 35.304 401.584 35.176 401.456 34.92C401.328 34.6 401.104 34.248 400.784 33.864C400.464 33.48 399.696 33 398.48 32.424C397.264 31.784 396.208 31.464 395.312 31.464C394.48 31.464 393.904 31.496 393.584 31.56C393.328 31.56 392.848 31.656 392.144 31.848C391.44 31.976 390.8 32.2 390.224 32.52C388.752 33.352 388.016 34.568 388.016 36.168C388.016 37.192 388.24 37.96 388.688 38.472C389.136 38.92 389.488 39.272 389.744 39.528C390 39.784 390.448 40.104 391.088 40.488C391.728 40.808 392.176 41.032 392.432 41.16C392.688 41.288 393.264 41.576 394.16 42.024C395.056 42.408 395.632 42.664 395.888 42.792C402.672 45.992 406.064 50.344 406.064 55.848ZM429.08 25.896C430.232 25.896 431.256 26.056 432.152 26.376C433.112 26.632 433.624 26.76 433.688 26.76L434.264 26.28L433.88 15.816C433.752 14.024 433.368 12.488 432.728 11.208C432.088 9.928 431.512 9.096 431 8.712L430.136 8.232C429.752 7.976 429.56 7.688 429.56 7.368C429.56 6.408 431.032 5.288 433.976 4.008C436.984 2.728 439.32 2.088 440.984 2.088C442.648 2.088 443.544 2.44 443.672 3.144C443.992 5.32 444.152 9.48 444.152 15.624C444.152 21.704 443.992 27.688 443.672 33.576C443.416 39.464 443.288 46.152 443.288 53.64C443.288 61.064 443.768 65.736 444.728 67.656C444.984 68.104 445.112 68.52 445.112 68.904C445.112 69.864 443.736 70.344 440.984 70.344C435.736 70.344 433.112 69.096 433.112 66.6C432.984 65.576 432.92 64.008 432.92 61.896C432.92 59.72 433.112 55.72 433.496 49.896C433.944 44.008 434.168 39.496 434.168 36.36C434.168 33.16 432.568 31.56 429.368 31.56C426.232 31.56 423.832 33.416 422.168 37.128C420.504 40.84 419.672 44.552 419.672 48.264C419.672 56.136 421.656 60.072 425.624 60.072C426.2 60.072 426.744 59.976 427.256 59.784C427.832 59.528 428.184 59.4 428.312 59.4C428.824 59.4 429.208 59.72 429.464 60.36C429.784 61 429.944 61.64 429.944 62.28C429.944 64.456 429.08 66.312 427.352 67.848C425.624 69.32 423.512 70.056 421.016 70.056C417.176 70.056 414.264 68.392 412.28 65.064C410.36 61.672 409.4 57.48 409.4 52.488C409.4 46.152 410.904 40.264 413.912 34.824C415.448 32.136 417.528 29.992 420.152 28.392C422.776 26.728 425.752 25.896 429.08 25.896ZM458.851 32.808C457.187 32.872 455.971 32.936 455.203 33C454.499 33 454.147 32.808 454.147 32.424C454.147 32.04 454.339 31.656 454.723 31.272C458.819 27.496 465.731 25.608 475.459 25.608C478.787 25.608 481.411 25.896 483.331 26.472L484.291 26.76C485.059 27.08 485.443 27.432 485.443 27.816C485.443 28.136 485.219 28.392 484.771 28.584C483.043 29.096 481.379 29.928 479.779 31.08C478.179 32.168 477.379 32.936 477.379 33.384L477.955 34.056C480.003 35.208 481.571 37.032 482.659 39.528C483.811 42.024 484.451 44.232 484.579 46.152L484.771 49.128C484.771 55.464 483.011 60.68 479.491 64.776C475.971 68.872 471.171 70.92 465.091 70.92C462.019 70.92 459.363 70.376 457.123 69.288C454.883 68.2 453.219 66.984 452.131 65.64C451.107 64.232 450.275 62.664 449.635 60.936C448.867 58.568 448.483 56.136 448.483 53.64C448.483 51.08 448.899 48.52 449.73 45.96C450.627 43.4 451.619 41.512 452.707 40.296C453.859 39.08 455.139 38.088 456.547 37.32C458.339 36.36 459.779 35.88 460.867 35.88C461.955 35.88 462.499 36.104 462.499 36.552L461.923 37.512C460.515 39.176 459.491 41.352 458.851 44.04C458.275 46.728 457.987 49.128 457.987 51.24C457.987 53.288 458.243 55.336 458.755 57.384C459.267 59.432 459.843 60.968 460.483 61.992C461.123 62.952 461.859 63.688 462.691 64.2C463.907 64.968 465.187 65.352 466.531 65.352C467.875 65.352 469.187 64.84 470.467 63.816C471.747 62.728 472.675 61.32 473.251 59.592C474.403 56.392 474.979 53.096 474.979 49.704C474.979 44.328 473.603 40.168 470.851 37.224C468.163 34.28 464.163 32.808 458.851 32.808ZM511.451 69.576C512.347 65.096 512.795 58.824 512.795 50.76C512.795 42.632 512.763 37.832 512.699 36.36C512.635 34.888 512.187 33.704 511.355 32.808C510.523 31.912 509.787 31.4 509.147 31.272C508.571 31.144 507.739 31.08 506.651 31.08C505.563 31.08 504.507 31.592 503.483 32.616C502.459 33.576 501.851 34.568 501.659 35.592L501.275 37.128C501.083 39.048 500.987 43.304 500.987 49.896C500.987 56.488 501.115 60.648 501.371 62.376C501.691 64.04 501.851 65.16 501.851 65.736C501.851 66.312 501.595 66.888 501.083 67.464C498.907 69.768 495.835 70.92 491.867 70.92C490.459 70.92 489.755 70.504 489.755 69.672C491.035 61.992 491.675 52.2 491.675 40.296C491.675 35.88 491.579 32.904 491.387 31.368L491.003 28.296C490.939 27.592 490.811 26.824 490.619 25.992C490.619 25.224 491.611 24.84 493.595 24.84C496.539 24.84 498.491 25.928 499.451 28.104C499.515 28.36 499.643 28.488 499.835 28.488C500.027 28.488 500.475 28.232 501.179 27.72C503.291 26.056 506.139 25.224 509.723 25.224C511.771 25.224 513.787 25.608 515.771 26.376C517.755 27.144 519.131 28.168 519.899 29.448C519.963 29.576 520.059 29.64 520.187 29.64C520.315 29.64 520.507 29.512 520.763 29.256C523.451 26.568 526.939 25.224 531.227 25.224C536.923 25.224 540.827 27.272 542.939 31.368C543.707 32.968 544.091 34.984 544.091 37.416C544.091 39.848 543.899 43.304 543.515 47.784C543.131 52.264 542.939 55.688 542.939 58.056C542.939 60.424 543.163 62.568 543.611 64.488C544.123 66.408 544.603 67.784 545.051 68.616C545.563 69.448 545.819 69.928 545.819 70.056C545.819 70.888 544.923 71.304 543.131 71.304C538.715 71.304 535.643 70.408 533.915 68.616C532.187 66.824 531.323 64.488 531.323 61.608C531.323 58.664 531.899 54.728 533.051 49.8C534.267 44.808 534.875 41.064 534.875 38.568C534.875 33.512 532.827 30.984 528.731 30.984C527.003 30.984 525.627 31.496 524.603 32.52C523.579 33.544 522.971 34.568 522.779 35.592L522.587 37.128C522.331 40.072 522.203 43.624 522.203 47.784C522.203 51.944 522.267 55.208 522.395 57.576C522.523 59.88 522.651 61.704 522.779 63.048C522.907 64.328 522.971 65.096 522.971 65.352C522.971 67.144 521.851 68.52 519.611 69.48C517.371 70.44 515.195 70.92 513.083 70.92C511.995 70.92 511.451 70.472 511.451 69.576Z" fill="white"/>
</svg>
